<?xml version="1.0" encoding="utf-8"?>
<!-- Generator: Adobe Illustrator 16.0.0, SVG Export Plug-In . SVG Version: 6.00 Build 0)  -->
<!DOCTYPE svg PUBLIC "-//W3C//DTD SVG 1.1//EN" "http://www.w3.org/Graphics/SVG/1.1/DTD/svg11.dtd">
<svg version="1.1" id="Layer_1" xmlns="http://www.w3.org/2000/svg" xmlns:xlink="http://www.w3.org/1999/xlink" x="0px" y="0px"
	 width="750px" height="116px" viewBox="0 0 750 116" style="enable-background:new 0 0 750 116;" xml:space="preserve">
<style type="text/css">
<![CDATA[
	.st0{clip-path:url(#SVGID_4_);fill:#0090D0;}
	.st1{clip-path:url(#SVGID_18_);fill:#0090D0;}
	.st2{clip-path:url(#SVGID_2_);fill:#B2AF38;}
	.st3{clip-path:url(#SVGID_12_);fill:#58595B;}
	.st4{clip-path:url(#SVGID_14_);fill:#B2AF38;}
	.st5{clip-path:url(#SVGID_2_);fill:#58595B;}
	.st6{clip-path:url(#SVGID_4_);fill:#B2AF38;}
	.st7{clip-path:url(#SVGID_14_);fill:#58595B;}
	.st8{clip-path:url(#SVGID_16_);fill:#B2AF38;}
	.st9{clip-path:url(#SVGID_16_);fill:#B9C136;}
	.st10{clip-path:url(#SVGID_4_);fill:#58595B;}
	.st11{clip-path:url(#SVGID_10_);fill:#0090D0;}
	.st12{clip-path:url(#SVGID_18_);fill:#B2AF38;}
	.st13{clip-path:url(#SVGID_6_);fill:#58595B;}
	.st14{clip-path:url(#SVGID_12_);fill:#0090D0;}
	.st15{clip-path:url(#SVGID_18_);fill:#58595B;}
	.st16{clip-path:url(#SVGID_8_);fill:#58595B;}
	.st17{clip-path:url(#SVGID_18_);fill:#C0BB5D;}
	.st18{clip-path:url(#SVGID_8_);fill:#231F20;}
]]>
</style>
<g>
	<defs>
		<rect id="SVGID_1_" width="750" height="116"/>
	</defs>
	<clipPath id="SVGID_2_">
		<use xlink:href="#SVGID_1_"  style="overflow:visible;"/>
	</clipPath>
	<path class="st5" d="M140.6,37.8c0,15.8-12.7,28.6-28.3,28.6C96.7,66.4,84,53.6,84,37.8C84,22,96.7,9.2,112.3,9.2
		C127.9,9.2,140.6,22,140.6,37.8 M149.5,37.8c0-20.8-16.7-37.6-37.2-37.6S75.1,17,75.1,37.8c0,5.6,1.2,10.9,3.4,15.6h0l33.9,61.9
		l33.9-61.9h0C148.3,48.6,149.5,43.4,149.5,37.8"/>
	<path class="st2" d="M106.5,42.4c0.3,0,0.6-0.1,0.9,0c2.7,0.1,5.4,3.5,6.4,3.8c1,0.3,2.4-2.3,2.4-2.3s-0.1,2.2-0.4,2.7
		c-0.3,0.5,0.5,0.5,0.6,0.2c0.2-0.2,0.4-0.7,0.5-0.4c0.1,0.3-0.3,1.2-0.1,1.3c0.2,0.1,1.1,0.6,1.5,1.3V34.8h-11.8V42.4z"/>
	<path class="st2" d="M115.3,22.8c0,0-0.1-0.1-0.1-0.1c-1.2-1-2.2-1.7-1.7-2.2c0.4-0.5,1.9-2.4,1.4-2.5c-0.5-0.2-5.1-0.7-6.5,0.3
		c-1.4,1.1-1.2,1.6-1.5,2.3c-0.1,0.2-0.2,0.3-0.3,0.4v12.4h8.8V22.8z"/>
	<path class="st2" d="M119.7,37.4h10l0.2,0.1c0,0,0.5,0.3,1.1,0.3c0.5,0,1.4-0.4,1.7-0.6l0.2-0.1l1.1,0c-0.4-2.5-2-4.4-3.3-5.8
		c-1.4-1.6-4.5-4.6-5.2-6.5c-0.7-1.9-1.9-4.4-2.4-4.7c-0.4-0.3-1-2.1-1.2-2.7c-0.2-0.6-0.7-1.6-1,0.5c-0.3,2.1-0.5,6-1.4,6.5
		c-0.6,0.3-1.7-0.1-2.7-0.6v9.6h3V37.4z"/>
	<path class="st2" d="M103.2,20.2c-0.5,0.4-2.4,2.2-2.5,2.4c-0.2,0.2-1.6,1.2-2,2c-0.5,0.8-1.3,2.8-2.6,2.8c-1.3,0-6.7,0.8-7,3.2
		c-0.3,2.4,0.1,6.3,0.7,7.6c0.6,1.3,1.5,4.2,1.4,5.3c-0.1,1.1-0.7,0.9-0.8,1.8c-0.2,0.9,0.8,1.5,2.1,1.4s2.9-1.4,3.6-1.4
		c0.7,0,3.7-0.9,3.7-0.9s2.8-1.3,5.3-1.9V21c0,0,0,0-0.1,0C104.4,20.6,103.6,19.9,103.2,20.2"/>
	<path class="st2" d="M133.3,38.5c-0.4,0.2-1.5,0.7-2.3,0.7c-0.7,0-1.4-0.2-1.7-0.4h-9.6v5.2c0.5,0.1,1.2,0.3,1.7,0.8
		c0.2,0.2,0.5,0.5,0.7,0.9c0.4,0.5,0.9,1.2,1.3,1.3c0.2,0.1,0.5,0.1,0.8,0.1c0.6,0,1.3,0,1.9,0.5c0.8,0.5,1.9,0.5,1.9,0.5h0.3
		l1.5,1.3c0.4-1,0.7-2.1,0.8-2.5c0.1-0.7,1.3-2.6,1.8-3.2c0.5-0.5,1.5-2.5,1.7-5.1L133.3,38.5z"/>
	<path class="st2" d="M127.5,55.3c-0.4,0.1-0.8,0.5-1.6,0.5c0,0-1.2-0.4-1.7-0.4c-0.5,0-0.4,0.6-0.3,1.2c0.2,0.6,1.5,3,2,3
		c0.5,0,1.7-0.9,2.1-2.6C128.5,55.4,127.9,55.2,127.5,55.3"/>
	<path class="st2" d="M125.3,48.8c-0.3-0.2-0.6-0.2-1.1-0.2c-0.4,0-0.7,0-1.2-0.1c-0.8-0.2-1.5-1.1-2.1-1.8
		c-0.2-0.3-0.4-0.5-0.6-0.7c-0.1-0.1-0.4-0.2-0.6-0.3v5.2h-0.1c1.1,0.6,2.7,1.1,4,1.2c2.2,0,4.9-0.5,5.4-1.1c0,0,0-0.1,0.1-0.1
		l-1.4-1.2C127.3,49.5,126.2,49.3,125.3,48.8"/>
</g>
<g>
	<defs>
		<rect id="SVGID_3_" x="600.6" y="1.1" width="74.4" height="114.9"/>
	</defs>
	<clipPath id="SVGID_4_">
		<use xlink:href="#SVGID_3_"  style="overflow:visible;"/>
	</clipPath>
	<path class="st10" d="M666.1,38.7c0,15.8-12.7,28.6-28.3,28.6c-15.6,0-28.3-12.8-28.3-28.6c0-15.8,12.7-28.6,28.3-28.6
		C653.5,10.1,666.1,22.9,666.1,38.7 M675,38.7c0-20.8-16.7-37.6-37.2-37.6s-37.2,16.8-37.2,37.6c0,5.6,1.2,10.8,3.4,15.6h0
		l33.9,61.8l33.9-61.8h0C673.8,49.5,675,44.2,675,38.7"/>
	<path class="st0" d="M621.3,45.8c-1,0-2.2-0.4-3.4-1.3v1.9h6.3c1.9,0,3.5-0.3,5.1-0.7c-0.8-0.2-1.7-0.7-2.7-1.5l-0.7-0.6l-0.7,0.6
		C623.7,45.3,622.5,45.8,621.3,45.8 M621.3,41.4c-1,0-2.2-0.4-3.4-1.3v2.6c1.1,0.6,2.3,0.9,3.4,0.9c1.6,0,3.1-0.6,4.6-1.7
		c1.5,1.1,3,1.7,4.6,1.7c1.6,0,3.1-0.6,4.6-1.7c0.1,0.1,0.2,0.1,0.3,0.2c0.6-0.5,1.2-1,1.7-1.6c-0.4-0.2-0.9-0.5-1.3-0.9l-0.7-0.6
		l-0.7,0.6c-1.5,1.2-2.7,1.7-3.9,1.7c-1.2,0-2.4-0.5-3.9-1.7l-0.7-0.6l-0.7,0.6C623.7,40.9,622.5,41.4,621.3,41.4 M621.3,37.1
		c-1,0-2.2-0.4-3.4-1.3v2.6c1.1,0.6,2.3,0.9,3.4,0.9c1.6,0,3.1-0.6,4.6-1.7c1.5,1.1,3,1.7,4.6,1.7c1.6,0,3.1-0.6,4.6-1.7
		c1.1,0.8,2.1,1.3,3.3,1.5c0.5-0.7,1-1.4,1.5-2.1c-0.1,0-0.1,0-0.2,0c-1.2,0-2.4-0.5-3.9-1.7l-0.7-0.6l-0.7,0.6
		c-1.5,1.2-2.7,1.7-3.9,1.7c-1.2,0-2.4-0.5-3.9-1.7l-0.7-0.6l-0.7,0.6C623.7,36.6,622.5,37.1,621.3,37.1 M642.6,31.8
		c-1,0.7-2,1-2.9,1c-1.2,0-2.4-0.5-3.9-1.7l-0.7-0.6l-0.7,0.6c-1.5,1.2-2.7,1.7-3.9,1.7c-1.2,0-2.4-0.5-3.9-1.7l-0.7-0.6l-0.7,0.6
		c-1.5,1.2-2.7,1.7-3.9,1.7c-1,0-2.2-0.4-3.4-1.3v2.6c1.1,0.6,2.3,0.9,3.4,0.9c1.6,0,3.1-0.6,4.6-1.7c1.5,1.1,3,1.7,4.6,1.7
		c1.6,0,3.1-0.6,4.6-1.7c1.5,1.1,3,1.7,4.6,1.7h0c0.5,0,1-0.1,1.5-0.2C641.7,33.8,642.2,32.8,642.6,31.8"/>
	<path class="st6" d="M646.8,27.5c-2.2,1.4-2.6,2.2-3.9,5.6c-0.4,1-0.8,2-1.4,3c-0.4,0.8-0.8,1.5-1.3,2.3c-0.5,0.7-1,1.4-1.5,2.1
		c-0.4,0.5-0.8,1-1.3,1.5c-0.5,0.6-1.1,1.1-1.7,1.6c-1.7,1.5-3.8,2.4-6.2,3.1c-1.5,0.4-3.2,0.7-5.1,0.7h-6.5v1v2.8h39.7V26.4
		C657.6,26.4,649,26.1,646.8,27.5"/>
</g>
<g>
	<defs>
		<rect id="SVGID_5_" width="74.7" height="115.5"/>
	</defs>
	<clipPath id="SVGID_6_">
		<use xlink:href="#SVGID_5_"  style="overflow:visible;"/>
	</clipPath>
	<path class="st13" d="M65.8,37.7c0,15.8-12.7,28.7-28.4,28.7C21.7,66.4,9,53.6,9,37.7C9,21.9,21.7,9.1,37.4,9.1
		C53.1,9.1,65.8,21.9,65.8,37.7 M74.7,37.7C74.7,16.9,58,0,37.4,0C16.7,0,0,16.9,0,37.7c0,5.6,1.2,10.9,3.4,15.7h0l34,62.1l34-62.1
		h0C73.5,48.6,74.7,43.3,74.7,37.7"/>
</g>
<g>
	<defs>
		<rect id="SVGID_7_" width="750" height="116"/>
	</defs>
	<clipPath id="SVGID_8_">
		<use xlink:href="#SVGID_7_"  style="overflow:visible;"/>
	</clipPath>
	<polygon class="st16" points="41.7,44 57.9,36.1 53,34.8 37.8,42.1 22.7,34.8 17.7,36.1 34,44 17.7,51.9 22.7,53.2 37.8,45.9
		53,53.2 57.9,51.9 	"/>
	<polygon class="st18" points="39.8,27.1 37.8,44.1 35.8,27.1 	"/>
</g>
<g>
	<defs>
		<rect id="SVGID_9_" width="74.7" height="115.5"/>
	</defs>
	<clipPath id="SVGID_10_">
		<use xlink:href="#SVGID_9_"  style="overflow:visible;"/>
	</clipPath>
	<path class="st11" d="M37.8,28.6c2.9,0,5.2-2.4,5.2-5.3c0-2.9-2.3-5.3-5.2-5.3s-5.2,2.4-5.2,5.3C32.6,26.2,34.9,28.6,37.8,28.6"/>
</g>
<g>
	<defs>
		<rect id="SVGID_11_" x="375.7" y="0.4" width="74.5" height="115.1"/>
	</defs>
	<clipPath id="SVGID_12_">
		<use xlink:href="#SVGID_11_"  style="overflow:visible;"/>
	</clipPath>
	<path class="st3" d="M441.2,38c0,15.8-12.7,28.6-28.3,28.6c-15.6,0-28.3-12.8-28.3-28.6c0-15.8,12.7-28.6,28.3-28.6
		C428.6,9.5,441.2,22.3,441.2,38 M450.2,38c0-20.8-16.7-37.6-37.2-37.6c-20.6,0-37.2,16.8-37.2,37.6c0,5.6,1.2,10.9,3.4,15.6h0
		l33.9,61.9l33.9-61.9h0C449,48.9,450.2,43.6,450.2,38"/>
	<path class="st3" d="M407.1,34.3l3.4-4.1l-1.1-2.6l-9.2-7.6l-5,6l9.2,7.6L407.1,34.3z M422.7,37.2c0,0,0.8-1-0.2-1.8l-8-6.8
		c0,0-1-0.8-1.8,0.2l-6.7,8.1c0,0-0.8,1,0.2,1.8l8,6.8c0,0,1,0.8,1.8-0.2L422.7,37.2z M433.4,47.9l-9.1-7.6l-2.8-0.7l-3.4,4.1
		l1.1,2.6l9.1,7.6L433.4,47.9z"/>
	<path class="st14" d="M413.1,48.3c-0.1-0.5-0.5-0.9-1-0.8c-3.8,0.4-7.3-2.4-7.7-6.2c-0.1-0.5-0.5-0.9-1-0.8c-0.2,0-0.3,0.1-0.5,0.2
		c-0.2,0.2-0.4,0.5-0.3,0.8c0.6,4.9,4.9,8.4,9.7,7.8C412.8,49.2,413.2,48.8,413.1,48.3 M413.5,51.9c-0.1-0.5-0.5-0.9-1-0.8
		c-5.8,0.7-11-3.6-11.7-9.4c-0.1-0.5-0.5-0.9-1-0.8c-0.2,0-0.3,0.1-0.5,0.2c-0.2,0.2-0.4,0.5-0.3,0.8c0.8,6.8,7,11.8,13.7,11
		C413.2,52.8,413.6,52.4,413.5,51.9"/>
</g>
<g>
	<defs>
		<rect id="SVGID_13_" width="750" height="116"/>
	</defs>
	<clipPath id="SVGID_14_">
		<use xlink:href="#SVGID_13_"  style="overflow:visible;"/>
	</clipPath>
	<path class="st7" d="M741.1,38c0,15.8-12.7,28.6-28.3,28.6c-15.6,0-28.3-12.8-28.3-28.6c0-15.8,12.7-28.6,28.3-28.6
		C728.4,9.5,741.1,22.3,741.1,38 M750,38c0-20.8-16.7-37.6-37.2-37.6c-20.6,0-37.2,16.8-37.2,37.6c0,5.6,1.2,10.9,3.4,15.6h0
		l33.9,61.9l33.9-61.9h0C748.8,48.9,750,43.6,750,38"/>
	<path class="st4" d="M732.1,36.1L732.1,36.1c-9.4,0-23.3,8.9-27.5,17.5h27.5V36.1z"/>
</g>
<g>
	<defs>
		<path id="SVGID_15_" d="M704.7,53.6h27.5V36.1c0,0,0,0,0,0C722.8,36.1,708.8,45,704.7,53.6"/>
	</defs>
	<clipPath id="SVGID_16_">
		<use xlink:href="#SVGID_15_"  style="overflow:visible;"/>
	</clipPath>
	<path class="st9" d="M717.5,31.5L717.5,31.5c9.4,0,23.3,8.9,27.5,17.5h-27.5V31.5z"/>
	<path class="st8" d="M714.7,33.8L714.7,33.8c9.4,0,23.3,8.9,27.5,17.5h-27.5V33.8z"/>
	<path class="st9" d="M711.9,36.1L711.9,36.1c9.3,0,23.3,8.9,27.5,17.5h-27.5V36.1z"/>
	<path class="st8" d="M708.9,38.3L708.9,38.3c9.3,0,23.3,8.9,27.5,17.5h-27.5V38.3z"/>
	<path class="st9" d="M705.4,40.6L705.4,40.6c9.3,0,23.3,8.9,27.5,17.5h-27.5V40.6z"/>
	<path class="st8" d="M702.3,42.7L702.3,42.7c9.4,0,23.3,8.9,27.5,17.5h-27.5V42.7z"/>
	<path class="st9" d="M699.5,45.3L699.5,45.3c9.3,0,23.3,8.9,27.5,17.5h-27.5V45.3z"/>
	<path class="st8" d="M696.4,47.7L696.4,47.7c9.4,0,23.3,8.9,27.5,17.5h-27.5V47.7z"/>
</g>
<g>
	<defs>
		<rect id="SVGID_17_" width="750" height="116"/>
	</defs>
	<clipPath id="SVGID_18_">
		<use xlink:href="#SVGID_17_"  style="overflow:visible;"/>
	</clipPath>
	<rect x="719.1" y="34.9" class="st15" width="2" height="8.6"/>
	<path class="st12" d="M720,35.7c3.4,0,6.2-2.8,6.2-6.3s-2.8-6.3-6.2-6.3c-3.4,0-6.2,2.8-6.2,6.3S716.5,35.7,720,35.7"/>
	<path class="st1" d="M711.4,43.7v-7.2l-9.1-7.5l-4.6,3.9v-2.7h-3.3v5.3h0.1l-1.1,1v17.2h9.7C704.8,49.9,707.8,46.5,711.4,43.7"/>
	<path class="st15" d="M366.3,37.7c0,15.8-12.7,28.7-28.4,28.7c-15.7,0-28.4-12.8-28.4-28.7c0-15.8,12.7-28.7,28.4-28.7
		C353.5,9.1,366.3,21.9,366.3,37.7 M375.2,37.7c0-20.8-16.7-37.7-37.4-37.7c-20.6,0-37.4,16.9-37.4,37.7c0,5.6,1.2,10.9,3.4,15.7h0
		l34,62.1l34-62.1h0C374,48.6,375.2,43.3,375.2,37.7"/>
	<path class="st15" d="M331.6,37.7V15.7c0-0.8-0.6-1.4-1.3-1.4c-0.7,0-1.3,0.6-1.3,1.4v22.1c-3.6,0.6-6.3,3.8-6.3,7.6
		c0,4.2,3.4,7.7,7.6,7.7c4.2,0,7.6-3.4,7.6-7.7C337.8,41.5,335.1,38.4,331.6,37.7 M330.2,50.3c-2.7,0-4.9-2.2-4.9-5
		c0-2.7,2.2-5,4.9-5c2.7,0,4.9,2.2,4.9,5C335.1,48,332.9,50.3,330.2,50.3"/>
	<path class="st12" d="M339.4,44.3c0,0.2,13.3,5.2,13.3,5.2l2.6-17.8h-22.1v4.8C336.5,37.6,339,40.6,339.4,44.3 M330.9,54.6
		c-0.4,0-0.7,0-0.7,0v7l13.2-0.4l8.8-10.5l-12.9-5C339.2,50.5,335.6,54.3,330.9,54.6 M333.2,30h22.1l-1.4-8.2l-6.9-5.7l-13.8,3.2V30
		z"/>
	<path class="st15" d="M291,37.7c0,15.8-12.7,28.7-28.4,28.7c-15.7,0-28.4-12.8-28.4-28.7c0-15.8,12.7-28.7,28.4-28.7
		C278.3,9.1,291,21.9,291,37.7 M300,37.7C300,16.9,283.3,0,262.6,0c-20.6,0-37.4,16.9-37.4,37.7c0,5.6,1.2,10.9,3.4,15.7h0l34,62.1
		l34-62.1h0C298.8,48.6,300,43.3,300,37.7"/>
	<path class="st17" d="M288.8,36.5l-4.4-5.5c-0.2-0.3-0.5-0.4-0.9-0.4h-18.9v-3.7c0,0,0,0,0,0v-6.7h1.7c0.6,0,1.2-0.5,1.2-1.2
		s-0.5-1.2-1.2-1.2h-5.6c-0.6,0-1.2,0.5-1.2,1.2s0.5,1.2,1.2,1.2h1.7v5.6h-18.8c-0.3,0-0.7,0.2-0.9,0.4l-4.4,5.5
		c-0.3,0.4-0.3,1,0,1.5l4.4,5.5c0.2,0.3,0.5,0.4,0.9,0.4h18.8v19.7h-1.7c-0.6,0-1.2,0.5-1.2,1.2c0,0.6,0.5,1.2,1.2,1.2h5.6
		c0.6,0,1.2-0.5,1.2-1.2c0-0.6-0.5-1.2-1.2-1.2h-1.7V43.9h18.9c0.3,0,0.7-0.2,0.9-0.4l4.4-5.5C289.1,37.5,289.1,36.9,288.8,36.5
		 M244,36.7l-3.5-4.3l3.5-4.3h18.3v8.6H244z M282.9,41.5h-18.3v-8.6h18.3l3.5,4.3L282.9,41.5z"/>
	<path class="st15" d="M215.8,37.8c0,15.8-12.7,28.7-28.4,28.7c-15.7,0-28.4-12.8-28.4-28.7s12.7-28.7,28.4-28.7
		C203.1,9.1,215.8,21.9,215.8,37.8 M224.7,37.8c0-20.8-16.7-37.7-37.4-37.7c-20.6,0-37.3,16.9-37.3,37.7c0,5.6,1.2,10.9,3.4,15.7h0
		l34,62.1l34-62.1h0C223.5,48.7,224.7,43.4,224.7,37.8"/>
	<path class="st1" d="M211.1,32.8c-0.2-1-1.2-1.7-2.3-1.5l-10.6,2.3c-1.7-4.4-6-7.4-10.8-7.4c-0.2,0-0.4,0-0.5,0l-2.3-10.7
		c-0.2-1-1.2-1.7-2.3-1.5c-1,0.2-1.7,1.3-1.5,2.3l2.3,10.7c-4.6,1.8-7.5,6.5-7.3,11.4l-10.6,2.3c-1,0.2-1.7,1.3-1.5,2.3
		c0.2,0.9,1,1.5,1.9,1.5c0.1,0,0.3,0,0.4,0l10.6-2.3c1.7,4.4,6,7.4,10.8,7.4c0.2,0,0.4,0,0.5,0l2.3,10.7c0.2,0.9,1,1.5,1.9,1.5
		c0.1,0,0.3,0,0.4,0c1-0.2,1.7-1.3,1.5-2.3l-2.3-10.7c4.6-1.8,7.5-6.5,7.3-11.4l10.6-2.3C210.7,34.9,211.4,33.9,211.1,32.8
		 M189.1,45.6c-0.5,0.1-1.1,0.2-1.6,0.2c-3.6,0-6.8-2.6-7.6-6.2c-0.9-4.2,1.8-8.4,6-9.3c0.5-0.1,1.1-0.2,1.6-0.2
		c3.6,0,6.8,2.6,7.6,6.2C196,40.5,193.3,44.7,189.1,45.6"/>
	<path class="st15" d="M591.2,37.9c0,15.8-12.7,28.6-28.3,28.6c-15.6,0-28.3-12.8-28.3-28.6s12.7-28.6,28.3-28.6
		C578.5,9.3,591.2,22.1,591.2,37.9 M600.1,37.9c0-20.8-16.7-37.7-37.3-37.7c-20.6,0-37.3,16.9-37.3,37.7c0,5.6,1.2,10.9,3.4,15.6h0
		l33.9,62l33.9-62h0C598.9,48.8,600.1,43.5,600.1,37.9"/>
	<path class="st1" d="M555.7,49.4c2.4,1.7,4.9,2.7,7.5,2.7c2.6,0,5-1,7.5-2.7c2.4,1.7,4.9,2.7,7.4,2.7h0c1.7,0,3.4-0.4,5-1.2v-4.2
		c-1.9,1.3-3.5,1.8-5,1.8c-1.9,0-3.9-0.8-6.3-2.7l-1.1-0.9l-1.1,0.9c-2.4,1.9-4.4,2.7-6.3,2.7c-1.9,0-3.9-0.8-6.3-2.7l-1.1-0.9
		l-1.1,0.9c-2.4,1.9-4.4,2.7-6.3,2.7c-1.7,0-3.5-0.6-5.5-2.2v4.3c1.8,1,3.7,1.5,5.5,1.5C550.8,52,553.3,51.1,555.7,49.4 M555.7,42.3
		c2.4,1.7,4.9,2.7,7.5,2.7c2.6,0,5-1,7.5-2.7c2.4,1.7,4.9,2.7,7.4,2.7h0c1.7,0,3.4-0.4,5-1.2v-4.2c-1.9,1.3-3.5,1.8-5,1.8
		c-1.9,0-3.9-0.8-6.3-2.7l-1.1-0.9l-1.1,0.9c-2.4,1.9-4.4,2.7-6.3,2.7c-1.9,0-3.9-0.8-6.3-2.7l-1.1-0.9l-1.1,0.9
		c-2.4,1.9-4.4,2.7-6.3,2.7c-1.7,0-3.5-0.6-5.5-2.2v4.3c1.8,1,3.7,1.5,5.5,1.5C550.8,45,553.3,44.1,555.7,42.3 M555.7,28.3
		c2.4,1.7,4.9,2.7,7.5,2.7c2.6,0,5-1,7.5-2.7C573,30,575.4,31,578,31h0c1.7,0,3.4-0.4,5-1.2v-4.2c-1.9,1.3-3.5,1.8-5,1.8
		c-1.9,0-3.9-0.8-6.3-2.7l-1.1-0.9l-1.1,0.9c-2.4,1.9-4.4,2.7-6.3,2.7c-1.9,0-3.9-0.8-6.3-2.7l-1.1-0.9l-1.1,0.9
		c-2.4,1.9-4.4,2.7-6.3,2.7c-1.7,0-3.5-0.6-5.5-2.2v4.3c1.8,1,3.7,1.5,5.5,1.5C550.8,31,553.3,30,555.7,28.3 M555.7,35.3
		c2.4,1.7,4.9,2.7,7.5,2.7c2.6,0,5-1,7.5-2.7c2.4,1.7,4.9,2.7,7.4,2.7h0c1.7,0,3.4-0.4,5-1.2v-4.2c-1.9,1.3-3.5,1.8-5,1.8
		c-1.9,0-3.9-0.8-6.3-2.7l-1.1-0.9l-1.1,0.9c-2.4,1.9-4.4,2.7-6.3,2.7c-1.9,0-3.9-0.8-6.3-2.7l-1.1-0.9l-1.1,0.9
		c-2.4,1.9-4.4,2.7-6.3,2.7c-1.7,0-3.5-0.6-5.5-2.2v4.3c1.8,1,3.7,1.5,5.5,1.5C550.8,38,553.3,37.1,555.7,35.3"/>
	<path class="st15" d="M516.1,38.1c0,15.8-12.7,28.6-28.3,28.6c-15.6,0-28.3-12.8-28.3-28.6c0-15.8,12.7-28.6,28.3-28.6
		C503.5,9.5,516.1,22.3,516.1,38.1 M525.1,38.1c0-20.8-16.7-37.6-37.2-37.6c-20.5,0-37.2,16.8-37.2,37.6c0,5.6,1.2,10.9,3.4,15.6h0
		l33.9,61.8l33.9-61.8h0C523.9,48.9,525.1,43.7,525.1,38.1"/>
	<path class="st15" d="M483.3,17.7l6.4,4.7l14.4-4.8l1.3,1L494.7,26l6.4,4.8l6.3-2.3l1.2,0.9l-6.5,4.6l-2.3,7.6l-1.2-0.9l0.1-6.6
		l-6.6-4.6l-3.5,12.6l-1.3-1l0-15.2l-6.5-4.7c-0.8-0.6-1.9-2.6-1.2-3.6C480.2,16.7,482.5,17.2,483.3,17.7"/>
	<path class="st12" d="M491.2,54.8c-0.2,0-0.3-0.2-0.3-0.4c0-0.2,0.2-0.4,0.3-0.4h6.1c0.2,0,0.3,0.2,0.3,0.4c0,0.2-0.2,0.4-0.3,0.4
		H491.2z M494.3,50.1c-2.9,0-6.1,0.4-6.1,0.4h0c-0.3,0-0.4-0.4-0.4-0.6c0.3-1.7,0.5-2,0.5-2.1c0.1-0.2,1.8-2.1,6-2.1s5.9,1.9,6,2.1
		c0,0.1,0.2,0.4,0.5,2.1c0,0.2,0,0.6-0.4,0.6h0C500.4,50.5,497.2,50.1,494.3,50.1 M500.4,55.1c-0.5,0-0.9-0.4-0.9-0.9
		c0-0.5,0.4-0.9,0.9-0.9c0.5,0,0.9,0.4,0.9,0.9C501.3,54.7,500.9,55.1,500.4,55.1 M499,57.5c0.5,0,0.8,0.4,0.8,0.6v0.8
		c0,0.6,0.4,1,1,1h0.9c0.6,0,1-0.5,1-1v-2.6c0.1-0.2,0.3-1.6-0.1-3.7c-0.2-1.2-0.7-1.8-0.8-2c0,0-0.7-2.9-0.9-3.4
		c-0.1-0.4-2.7-2.3-6.7-2.3c-4,0-6.5,1.9-6.7,2.3c-0.1,0.4-0.9,3.4-0.9,3.4c-0.1,0.1-0.6,0.8-0.8,2c-0.4,2.1-0.2,3.6-0.1,3.7v2.6
		c0,0.6,0.4,1,1,1h0.9c0.6,0,1-0.5,1-1V58c0-0.2,0.3-0.6,0.8-0.6H499z M488.5,55.1c-0.5,0-0.9-0.4-0.9-0.9c0-0.5,0.4-0.9,0.9-0.9
		s0.9,0.4,0.9,0.9C489.4,54.7,489,55.1,488.5,55.1"/>
	<path class="st1" d="M465.9,47.9c-0.9,0-1.7-0.3-2.6-0.7v-2c1,0.7,1.8,1,2.6,1c0.9,0,1.8-0.4,2.9-1.3l0.5-0.4l0.5,0.4
		c1.1,0.9,2.1,1.3,3,1.3c0.9,0,1.8-0.4,3-1.3l0.5-0.4l0.5,0.4c1.1,0.9,2.1,1.3,2.9,1.3c0.7,0,1.5-0.3,2.3-0.8v2
		c-0.8,0.4-1.5,0.6-2.3,0.6h0c-1.2,0-2.3-0.5-3.5-1.2c-1.1,0.8-2.3,1.3-3.5,1.2c-1.2,0-2.4-0.4-3.5-1.2
		C468.2,47.4,467.1,47.9,465.9,47.9 M468.1,36.4c0.1,0.2,0.4,0.3,0.6,0.2l0.5-0.3c0.2-0.1,0.3-0.4,0.2-0.6c-0.1-0.2-0.4-0.3-0.6-0.2
		l-0.5,0.3C468.1,35.9,468,36.2,468.1,36.4 M463.7,39.6c-0.5-1.7-1.8-2.5,0.9-3.8c2.3-1.2,6.6-3.1,7.8-3.6v12.2
		c-0.8-0.1-1.6-0.5-2.5-1.2l-0.5-0.4l-0.5,0.4c-1.1,0.9-2.1,1.3-2.9,1.3c-0.5,0-0.9-0.1-1.5-0.3C464.3,42.7,464,40.6,463.7,39.6
		 M465.8,34.3c2.8-1.4,6.7-3.1,6.7-3.1l0.2-0.1l0.2,0.1c0,0,3.7,1.6,6.5,3l-0.3-2.5h1l-0.2-1.9h-14.4l-0.2,1.9h0.8L465.8,34.3z
		 M474.4,25.3c0-0.8-0.6-1.5-1.4-1.5h-0.6c-0.8,0-1.4,0.7-1.4,1.5v1.5h3.5V25.3z M476.1,36.4l0.5,0.3c0.2,0.1,0.5,0,0.6-0.2
		c0.1-0.2,0-0.5-0.2-0.6l-0.5-0.3c-0.2-0.1-0.5,0-0.6,0.2C475.8,36,475.9,36.3,476.1,36.4 M473,32.2c1.2,0.5,5.5,2.5,7.8,3.6
		c2.7,1.4,1.4,2.2,0.9,3.8c-0.3,1-0.6,3.1-0.7,4.6c-0.4,0.2-0.8,0.2-1.2,0.2c-0.9,0-1.8-0.4-2.9-1.3l-0.5-0.4l-0.5,0.4
		c-1,0.8-1.9,1.2-2.8,1.3V32.2z M477.8,29.2h-10.4v-1.7h10.4V29.2z"/>
</g>
</svg>
